# xmcd CD database file
#
# Track frame offsets:
#	150
#	23097
#	39637
#	58875
#	62802
#	72965
#	82850
#	111972
#	116592
#	137602
#	145445
#
# Disc length: 2265 seconds
#
# Revision: 0
# Processed by: cddbd v1.5PL3 Copyright (c) Steve Scherf et al.
# Submitted via: CDex 1.51
#
DISCID=9e08d70b
DTITLE=さねよしいさ子 - 夜光杯
DYEAR=1900
DGENRE=Japanese Pop
TTITLE0=星めぐりの歌
TTITLE1=あの町この町
TTITLE2=Black Is The Colour
TTITLE3=ブランブレン - 昼
TTITLE4=God Is Seen
TTITLE5=金平糖の踊り
TTITLE6=手足
TTITLE7=ブランブレン - 夜
TTITLE8=Nana
TTITLE9=Summer Time
TTITLE10=ブランブレン
EXTD=
EXTT0=
EXTT1=
EXTT2=
EXTT3=
EXTT4=
EXTT5=
EXTT6=
EXTT7=
EXTT8=
EXTT9=
EXTT10=
PLAYORDER=
